# xmcd CD database file
#
# Track frame offsets:
#	150
#	5437
#	17062
#	30462
#	44775
#	55400
#	73100
#	84475
#	98500
#	110750
#	124062
#	135687
#	148150
#	160100
#	174425
#	188512
#	201075
#	215050
#
# Disc length: 3079 seconds
#
# Revision: 1
# Processed by: cddbd v1.5.1PL2 Copyright (c) Steve Scherf et al.
# Submitted via: Feurio! 1.68 - http://www.feurio.com
#
DISCID=010c0512
DTITLE=Various Artist - Road House Blues - 18 Great Hits
DYEAR=1900
DGENRE=Blues
TTITLE0=Jimmy Witherspoon - Live So easy
TTITLE1=Howlin' Wolf - Who Will Be Next
TTITLE2=John Lee Hooker - Union Station Blues
TTITLE3=Sonny Boy Williamson - Unseeing Eye
TTITLE4=Chuck Berry - Deep Feelin'
TTITLE5=Buddy Guy - When My Left Eye Jumps
TTITLE6=Little Milton - I Play Dirty
TTITLE7=Jackie Brenston - The Blues Got Me Again
TTITLE8=Lowell Fulson - That's All Right
TTITLE9=Little Walter - Roller Coaster
TTITLE10=Bo Diddley - Bring It To Jerome
TTITLE11=Jimmy Rogers - Chicago Bound
TTITLE12=Jimmy McCracklin - Mimmie Lee
TTITLE13=Muddy Waters - Rollin' Stone
TTITLE14=Otis Rush - Groaning The Blues
TTITLE15=Washboard Sam - Digging My Potatoes
TTITLE16=Koko Taylor - I Got What It Takes
TTITLE17=Memphis Slim - 4.00 Blues
EXTD=
EXTT0=
EXTT1=
EXTT2=
EXTT3=
EXTT4=
EXTT5=
EXTT6=
EXTT7=
EXTT8=
EXTT9=
EXTT10=
EXTT11=
EXTT12=
EXTT13=
EXTT14=
EXTT15=
EXTT16=
EXTT17=
PLAYORDER=
